<?xml version="1.0" encoding="utf-8"?>
<svg viewBox="151.155 180.729 126.712 128.684" xmlns="http://www.w3.org/2000/svg">
  <ellipse stroke-opacity="0" ry="60" rx="60" id="svg_23" cy="244.526" cx="214.439" stroke-width="1.5" stroke="#ffffff" fill="#1d809f"/>
  <path stroke-width="0" stroke="null" id="svg_2" d="M 185.026 271.42 C 182.032 268.664 180.328 265.078 179.921 260.666 L 163.124 260.666 C 162.946 269.071 167.381 275.726 176.444 280.636 C 180.829 283.036 186.052 284.832 192.073 286.065 C 190.025 289.706 187.758 293.334 185.157 296.905 C 187.883 298.539 190.505 299.619 191.488 299.985 C 216.23 266.3 217.137 222.437 191.394 189.108 C 191.209 189.028 185.086 192.021 185.157 192.138 C 188.869 197.224 191.947 202.384 194.535 207.618 C 188.645 208.733 183.615 210.429 179.509 212.739 C 171.521 217.224 167.53 222.96 167.53 229.951 C 167.53 236.414 171.594 241.269 179.718 244.519 C 184.359 246.37 192.255 248.062 203.347 249.602 C 202.737 258.83 200.499 268.042 196.58 277.095 C 191.7 275.802 187.818 273.931 185.026 271.42 Z M 184.502 228.142 C 184.502 224.684 186.717 221.645 191.131 219.031 C 192.996 217.93 195.472 217.107 198.378 216.487 C 201.112 223.883 202.763 231.363 203.311 238.862 C 198.101 237.976 194.397 237.189 192.339 236.508 C 187.119 234.752 184.502 231.956 184.502 228.142 Z M 237.339 299.988 C 237.409 300.211 243.84 296.975 243.736 296.905 C 241.116 293.307 238.797 289.641 236.739 285.973 C 241.463 285.09 246.005 283.98 250.187 282.486 C 260.546 278.776 265.743 272.616 265.743 263.997 C 265.743 257.082 261.676 251.806 253.555 248.165 C 248.854 246.083 242.178 244.441 233.522 243.242 L 225.396 242.112 C 225.66 233.698 227.259 225.296 230.269 216.999 C 234.089 217.999 237.224 219.384 239.559 221.205 C 242.374 223.428 244.213 226.625 245.063 230.791 L 261.871 230.791 C 261.871 222.14 257.165 215.847 247.75 211.91 C 243.634 210.189 239.069 208.894 234.159 207.942 C 236.791 202.594 239.533 197.222 243.699 192.13 C 243.832 191.952 237.43 188.863 237.297 189.041 C 210.876 222.201 212.794 266.334 237.339 299.988 Z M 241.774 256.638 C 246.136 258.441 248.301 261.459 248.301 265.696 C 248.301 271.341 243.164 275.264 232.909 277.448 C 232.763 277.481 232.604 277.509 232.461 277.53 C 228.879 269.372 226.69 261.093 225.795 252.77 C 232.753 253.918 238.166 255.202 241.774 256.638 Z" style="fill: rgb(255, 255, 255);"/>
</svg>