<svg width="122" height="122" xmlns="http://www.w3.org/2000/svg">
 <!-- Created with Method Draw - http://github.com/duopixel/Method-Draw/ -->
 <g>
  <title>background</title>
  <rect fill="none" id="canvas_background" height="124" width="124" y="-1" x="-1"/>
 </g>
 <g>
  <title>Layer 1</title>
  <ellipse stroke-opacity="0" ry="60" rx="60" id="svg_23" cy="61.5" cx="61.25" stroke-width="1.5" stroke="#ffffff" fill="#1d809f"/>
  <g stroke="null" id="svg_22">
   <g stroke="null" transform="matrix(2.6552937776392067,0,0,1.5244620823229993,162.22865500293545,393.17137429191934) " id="svg_3">
    <path stroke-width="0" fill="#ffffff" stroke="null" id="svg_2" d="m-49.32891,-200.12628c-1.148,-1.793 -1.801,-4.125 -1.957,-6.994l-6.439,0c-0.068,5.466 1.632,9.795 5.106,12.988c1.681,1.561 3.683,2.729 5.991,3.531c-0.785,2.368 -1.654,4.717 -2.651,7.039c1.038,0 2.077,0 3.113,0c9.41,-21.889 9.41,-46.253 0,-68.14c-1.037,0 -2.076,0 -3.113,0c1.423,3.308 2.603,6.675 3.595,10.079c-2.258,0.725 -4.186,1.829 -5.76,3.331c-3.062,2.917 -4.592,6.648 -4.592,11.195c0,4.203 1.558,7.361 4.672,9.475c1.779,1.204 4.806,2.304 9.058,3.306c-0.234,6.001 -1.092,11.993 -2.594,17.881c-1.871,-0.841 -3.359,-2.058 -4.429,-3.691zm-0.201,-28.148c0,-2.249 0.849,-4.226 2.541,-5.926c0.715,-0.716 1.664,-1.251 2.778,-1.654c1.048,4.81 1.681,9.675 1.891,14.552c-1.997,-0.576 -3.417,-1.088 -4.206,-1.531c-2.001,-1.142 -3.004,-2.96 -3.004,-5.441zm19.577,44.712c1.038,0 2.076,0 3.116,0c-1.004,-2.34 -1.88,-4.713 -2.669,-7.099c1.811,-0.574 3.552,-1.296 5.155,-2.268c3.971,-2.413 5.963,-6.419 5.963,-12.025c0,-4.498 -1.559,-7.929 -4.672,-10.297c-1.802,-1.354 -4.361,-2.422 -7.679,-3.202l-3.115,-0.735c0.101,-5.472 0.714,-10.937 1.868,-16.333c1.464,0.65 2.666,1.551 3.561,2.735c1.079,1.446 1.784,3.525 2.11,6.235l6.443,0c0,-5.627 -1.804,-9.72 -5.413,-12.28c-1.578,-1.119 -3.328,-1.962 -5.21,-2.581c1.009,-3.478 2.206,-6.918 3.657,-10.296c-1.04,0 -2.078,0 -3.116,0c-9.408,21.891 -9.408,46.258 0.001,68.146zm2.377,-26.178c1.672,1.173 2.502,3.135 2.502,5.891c0,3.672 -1.969,6.223 -5.9,7.644c-0.056,0.021 -0.117,0.039 -0.172,0.053c-1.373,-5.306 -2.212,-10.691 -2.555,-16.104c2.667,0.747 4.742,1.582 6.125,2.516zm-14.168,-40.209c0,-2.038 1.651,-3.687 3.686,-3.687s3.686,1.649 3.686,3.687c0,2.037 -1.651,3.686 -3.686,3.686s-3.686,-1.65 -3.686,-3.686z"/>
   </g>
   <g stroke="null" transform="matrix(2.6552937776392067,0,0,1.5244620823229993,162.22865500293545,393.17137429191934) " id="svg_4"/>
   <g stroke="null" transform="matrix(2.934914411698636,0,0,1.6528976049701327,172.52733938073814,424.93137189970525) " id="svg_5"/>
   <g stroke="null" id="svg_6"/>
   <g stroke="null" transform="matrix(2.934914411698636,0,0,1.6528976049701327,172.52733938073814,424.93137189970525) " id="svg_7"/>
   <g stroke="null" transform="matrix(2.934914411698636,0,0,1.6528976049701327,172.52733938073814,424.93137189970525) " id="svg_8"/>
   <g stroke="null" transform="matrix(2.934914411698636,0,0,1.6528976049701327,172.52733938073814,424.93137189970525) " id="svg_9"/>
   <g stroke="null" transform="matrix(2.934914411698636,0,0,1.6528976049701327,172.52733938073814,424.93137189970525) " id="svg_10"/>
   <g stroke="null" transform="matrix(2.934914411698636,0,0,1.6528976049701327,172.52733938073814,424.93137189970525) " id="svg_11"/>
   <g stroke="null" transform="matrix(2.934914411698636,0,0,1.6528976049701327,172.52733938073814,424.93137189970525) " id="svg_12"/>
   <g stroke="null" transform="matrix(2.934914411698636,0,0,1.6528976049701327,172.52733938073814,424.93137189970525) " id="svg_13"/>
   <g stroke="null" transform="matrix(2.934914411698636,0,0,1.6528976049701327,172.52733938073814,424.93137189970525) " id="svg_14"/>
   <g stroke="null" transform="matrix(2.934914411698636,0,0,1.6528976049701327,172.52733938073814,424.93137189970525) " id="svg_15"/>
   <g stroke="null" transform="matrix(2.934914411698636,0,0,1.6528976049701327,172.52733938073814,424.93137189970525) " id="svg_16"/>
   <g stroke="null" transform="matrix(2.934914411698636,0,0,1.6528976049701327,172.52733938073814,424.93137189970525) " id="svg_17"/>
   <g stroke="null" transform="matrix(2.934914411698636,0,0,1.6528976049701327,172.52733938073814,424.93137189970525) " id="svg_18"/>
  </g>
  <ellipse ry="7.12499" rx="11.62498" id="svg_20" cy="12.87506" cx="61.5" stroke-opacity="0" stroke-width="1.5" stroke="#ffffff" fill="#1d809f"/>
  <path stroke="#ffffff" id="svg_25" d="m39.56984,9.32011l-2.43598,-2.76893c0,0 -1.88976,0.8189 -2.07874,0.97638c-0.06299,-0.09449 -2.07874,1.03937 -2.07874,1.03937c0,0 -1.6378,0.91338 -1.6378,0.91338c0,0 0.25197,0.22048 0.25197,0.22048l8.14539,-0.11322z" stroke-opacity="0" stroke-width="1.5" fill="#ffffff"/>
  <path transform="rotate(-180 86.93661499023438,114.7542495727539) " id="svg_26" d="m91.21754,116.23281c0,0 -2.76667,-3.14463 -2.76667,-3.14463c0,0 -1.88976,0.8189 -2.07874,0.97638c-0.06299,-0.09449 -2.07874,1.03937 -2.07874,1.03937c0,0 -1.6378,0.91338 -1.6378,0.91338c0,0 0.25197,0.22048 0.25197,0.22048c0,0 8.34396,0.41399 8.30998,-0.00498z" stroke-opacity="0" stroke-width="1.5" stroke="#ffffff" fill="#ffffff"/>
  <path id="svg_27" d="m24.41733,26.33396c0,0 1.8333,-2.99995 1.74887,-3.00104" opacity="0.5" stroke-opacity="0" stroke-width="1.5" stroke="#ffffff" fill="#1d809f"/>
  <path id="svg_29" d="m91.15857,9.44624c0,0 -0.46534,0.60493 -0.51187,0.5584c-2.68626,-0.06489 -5.37252,-0.18174 -8.05878,-0.24663l2.42826,-3.47603c-0.00542,0.07252 2.00093,0.9772 1.9544,0.93067c0.04653,0.04653 1.11679,0.60493 1.07026,0.5584c0.04653,0.04653 1.07027,0.5584 1.02373,0.51186c0.04654,0.04654 2.094,1.16333 2.094,1.16333z" stroke-opacity="0" stroke-width="1.5" stroke="#ffffff" fill="#ffffff"/>
  <path transform="rotate(-180 35.56676483154297,114.84029388427734) " id="svg_30" d="m39.85209,116.14194c0,0 -0.46534,0.60493 -0.51187,0.5584c-2.68626,-0.06489 -5.37252,-0.18174 -8.05878,-0.24663l2.42826,-3.47603c-0.00542,0.07252 2.00093,0.9772 1.9544,0.93067c0.04653,0.04653 1.11679,0.60493 1.07026,0.5584c0.04653,0.04653 1.07027,0.5584 1.02373,0.51186c0.04654,0.04654 2.094,1.16333 2.094,1.16333z" stroke-opacity="0" stroke-width="1.5" stroke="#ffffff" fill="#ffffff"/>
 </g>
</svg>